<svg version="1.1" id="Layer_1" xmlns="http://www.w3.org/2000/svg" xmlns:xlink="http://www.w3.org/1999/xlink" x="0px" y="0px"
	 width="100%" viewBox="0 0 560 624" enable-background="new 0 0 560 624" xml:space="preserve">
<path fill="#000000" opacity="1.000000" stroke="none" 
	d="
M61.631901,207.524902 
	C63.289631,188.546432 63.010834,169.635071 70.980759,152.251709 
	C75.864594,141.599503 81.924126,131.625198 92.000229,124.857277 
	C93.447670,123.885063 94.417831,122.674820 94.860497,120.939537 
	C95.436050,118.683289 96.197548,116.473755 96.899666,114.250633 
	C110.730583,70.457130 142.371643,46.249393 185.289429,35.424011 
	C194.718567,33.045647 203.762100,30.793928 212.326538,26.066391 
	C225.719879,18.673319 240.434753,15.902039 255.621918,15.742384 
	C269.948456,15.591777 284.288330,15.413194 298.411957,18.617302 
	C309.724731,21.183737 319.875824,26.727629 330.589417,30.828526 
	C344.764343,36.254326 359.476135,39.980877 374.074799,44.044193 
	C379.318542,45.503700 384.703491,45.136082 389.964264,44.338505 
	C403.472778,42.290504 415.886871,45.239914 427.168335,52.565720 
	C434.419159,57.274170 441.358704,62.510448 446.609100,69.625473 
	C449.199280,73.135590 452.400574,75.995995 456.423187,77.945244 
	C461.305267,80.310959 463.626556,84.442169 464.527344,89.771622 
	C465.605469,96.150337 465.105835,102.398033 463.932587,108.640907 
	C463.534576,110.758644 463.611786,112.620743 465.033783,114.268311 
	C478.766693,130.179779 479.131866,148.829514 475.843201,168.101685 
	C473.271881,183.170288 465.793060,195.193619 452.326080,202.911743 
	C447.332794,205.773468 445.627075,208.980972 446.945496,215.016708 
	C450.466614,231.136765 445.806763,244.698715 432.010132,254.409637 
	C429.294586,256.320984 429.055298,258.640198 429.338409,261.337646 
	C430.891388,276.134796 429.459106,290.982025 430.137024,305.793579 
	C430.373260,310.955109 430.180298,316.097809 429.397003,321.238434 
	C428.476685,327.278687 426.380035,332.501617 420.836365,335.727325 
	C418.817993,336.901764 417.741058,338.542816 417.347137,340.873077 
	C414.727509,356.369354 410.444977,371.391174 404.024658,385.753357 
	C402.240051,389.745544 402.091217,393.594788 402.926025,397.880005 
	C404.961487,408.329254 406.337006,418.910797 406.280029,429.573853 
	C406.257385,433.815704 407.661835,435.760010 411.804352,436.906097 
	C439.590668,444.593567 467.805237,449.947632 496.367706,453.818390 
	C513.741089,456.172791 531.264771,455.626678 548.626526,457.615021 
	C555.331421,458.382904 555.426514,458.653442 552.802612,464.896149 
	C543.125549,487.919373 534.994202,511.613251 524.035400,534.065552 
	C514.681458,553.229919 506.856293,573.099304 496.816711,591.940247 
	C494.626434,596.050659 492.491455,597.748047 487.300049,597.566162 
	C470.155457,596.965454 452.976593,597.377380 435.811066,597.335693 
	C386.646606,597.216248 337.477814,597.419373 288.319336,596.805237 
	C253.838654,596.374451 219.354736,596.019470 184.888824,596.575867 
	C128.735153,597.482300 72.585236,597.023865 16.433903,597.177307 
	C14.436067,597.182800 12.427994,597.231567 10.442561,597.056946 
	C7.780706,596.822876 6.639349,595.198914 7.004833,592.589111 
	C7.327331,590.286194 7.843980,588.009033 8.127386,585.702393 
	C8.728894,580.806946 10.965382,577.442444 15.929985,575.857727 
	C22.091444,573.891052 26.795351,569.431824 31.818480,565.619751 
	C53.795753,548.941040 78.399353,536.506775 101.762138,522.067810 
	C119.046310,511.385681 136.043259,500.239319 153.201370,489.352051 
	C155.375046,487.972839 156.000458,486.143890 155.470627,483.813049 
	C149.152847,456.019196 146.901993,427.610352 142.785950,399.484924 
	C142.019119,394.245178 140.636398,391.159698 134.858643,388.867889 
	C115.274162,381.099548 101.995552,366.929840 97.418739,345.921936 
	C95.492912,337.082275 95.998131,327.979156 98.956070,319.280273 
	C100.016579,316.161499 99.254189,314.299408 97.152489,311.791016 
	C79.110680,290.258179 65.376671,266.676361 62.649349,237.907684 
	C61.703537,227.930908 61.572510,217.964355 61.631901,207.524902 
M196.713104,328.745239 
	C200.837982,347.726196 210.625275,363.492065 224.103226,377.199707 
	C238.150223,391.486084 255.363647,400.891968 273.367615,408.962860 
	C295.245087,418.770203 318.309357,423.514313 342.261047,423.447388 
	C353.616760,423.415649 364.404877,420.860870 373.577637,413.513794 
	C378.302063,409.729645 380.701019,404.838440 380.754272,398.847076 
	C380.816467,391.849701 377.959686,389.099548 370.997070,388.252258 
	C363.025055,387.282227 355.039490,387.521240 347.055756,387.300354 
	C340.461121,387.117889 337.709503,382.267517 340.803375,376.319580 
	C342.611755,372.842896 345.652496,370.669830 349.392700,370.048248 
	C353.301025,369.398712 357.264221,368.902863 361.306580,369.257080 
	C368.594971,369.895691 375.907562,370.257141 383.209412,370.743744 
	C385.224701,370.878021 386.919586,370.418304 387.475677,368.210541 
	C388.055176,365.909851 387.018372,364.249664 384.957336,363.377380 
	C383.610321,362.807312 382.110535,362.539886 380.652374,362.299652 
	C365.059326,359.730560 349.817566,362.179962 334.646362,365.578339 
	C327.912384,367.086823 322.850708,362.410461 323.851105,355.598602 
	C325.001007,347.768555 329.919464,343.307526 338.658722,342.983093 
	C345.819305,342.717316 352.951874,342.294312 360.040771,341.330444 
	C365.204803,340.628296 370.299377,340.574554 375.449738,341.465118 
	C379.373169,342.143524 383.300385,343.098999 387.346130,342.592468 
	C388.814423,342.408661 389.988373,341.701477 389.999939,340.126526 
	C390.014099,338.197723 388.398346,338.233185 387.090698,338.282135 
	C384.032501,338.396698 380.987915,338.251984 378.492371,336.332001 
	C374.967712,333.620209 371.033875,333.059082 366.750458,333.149963 
	C363.775940,333.213135 360.783997,332.734100 357.808380,332.417389 
	C349.541809,331.537506 345.662231,325.957092 343.975494,318.673309 
	C341.927246,309.828430 341.812195,301.106720 348.623322,293.838776 
	C349.273590,293.144867 350.310638,292.787689 351.206665,292.353699 
	C360.146454,288.023773 372.502899,291.561646 380.090607,300.780304 
	C376.543182,303.500610 372.324463,301.674896 368.589478,302.578156 
	C364.781372,303.499054 361.964722,305.399353 362.444885,309.715149 
	C362.994507,314.655121 367.102692,312.812531 369.534515,312.459106 
	C379.902893,310.952209 390.127594,311.804657 400.360016,313.402466 
	C408.114044,314.613220 409.351410,313.559448 408.522949,305.820435 
	C405.546906,278.019592 404.524200,250.045319 401.069366,222.288116 
	C400.620270,218.679810 401.853180,215.829895 404.654510,213.478531 
	C408.788544,210.008560 413.646088,208.389908 418.861847,207.955048 
	C422.237701,207.673569 423.268494,206.084976 422.646210,203.068024 
	C420.288452,191.637924 419.515930,179.992935 417.967590,168.454208 
	C417.555817,165.385513 416.139343,163.794952 413.392670,162.640900 
	C407.363556,160.107666 402.071136,156.357025 396.989471,152.250778 
	C392.453461,148.585434 389.098236,143.809036 385.018524,139.470840 
	C383.817505,140.438141 382.943268,141.166565 382.044098,141.862808 
	C369.517975,151.561600 355.674561,154.547989 340.853485,148.504684 
	C335.271027,146.228424 331.498627,146.351166 327.085754,150.560287 
	C318.093231,159.137711 307.047363,163.081985 294.665894,162.054718 
	C290.646667,161.721268 288.877106,162.315125 287.364624,166.241180 
	C280.133484,185.011597 265.906860,194.947144 246.226013,197.154861 
	C242.214371,197.604858 240.932541,199.098297 241.340439,202.761429 
	C242.580063,213.894272 238.704834,223.709961 233.566406,233.230881 
	C225.816696,247.590240 208.511703,256.039886 192.420609,253.498596 
	C189.596359,253.052551 186.822830,251.360565 183.536438,252.536270 
	C184.763916,258.761566 188.321060,263.281372 193.393204,266.439178 
	C201.607315,271.553070 211.383377,269.316528 219.290482,260.644379 
	C222.114319,257.547302 225.230957,255.327530 229.302368,257.152527 
	C233.168396,258.885468 232.809067,262.921234 232.602341,266.374329 
	C231.923630,277.710999 221.931870,287.185089 209.105911,289.319702 
	C203.237015,290.296448 197.408508,290.120544 191.349014,288.986847 
	C193.143524,302.603058 194.812988,315.270538 196.713104,328.745239 
M406.316040,492.499878 
	C406.317749,498.662994 406.416107,504.828003 406.296326,510.988739 
	C406.151459,518.440002 402.330017,521.432922 393.503235,521.248047 
	C388.213470,521.137207 386.817139,519.136902 386.732086,511.417023 
	C386.480713,488.603455 386.251953,465.789642 385.992828,442.976196 
	C385.963318,440.376495 386.139984,437.730347 385.335236,435.419342 
	C383.673737,434.832794 382.535492,435.360596 381.664490,436.053467 
	C371.293579,444.303497 358.751984,447.208038 346.353790,450.441559 
	C343.691040,451.136017 342.122986,452.628845 341.051758,455.163879 
	C337.295502,464.052887 333.449615,472.906799 329.469238,481.697754 
	C316.012024,511.418762 302.369415,541.048828 286.169922,569.420898 
	C283.290314,574.464233 283.975037,575.661438 289.584595,575.624878 
	C351.381592,575.221741 413.165344,576.504333 474.954590,577.058167 
	C478.339478,577.088440 480.578125,576.008118 482.051544,572.811279 
	C495.139130,544.414978 509.217743,516.470581 520.913452,487.440643 
	C522.254333,484.112427 524.055298,480.925842 524.587891,476.326233 
	C484.431854,474.884552 445.086395,469.893677 406.316650,456.801178 
	C406.316650,469.258179 406.316650,480.379028 406.316040,492.499878 
M230.386581,502.008301 
	C224.486755,478.459625 218.551239,454.919769 212.701416,431.358704 
	C209.533432,418.599152 208.174530,405.515442 206.008362,392.576874 
	C205.700272,390.736572 205.400070,389.014008 204.109741,387.549591 
	C190.312103,371.890778 181.643036,353.501434 175.564774,333.746063 
	C175.056793,332.095093 174.609543,330.115875 172.435974,330.690552 
	C167.351608,332.034760 162.598724,330.650116 158.030106,329.047150 
	C156.543396,331.111267 157.098816,332.995941 157.210175,334.752350 
	C158.094299,348.696533 159.517731,362.580994 161.188583,376.461273 
	C163.749680,397.737213 165.565948,419.075134 169.136536,440.257416 
	C173.418442,465.659576 177.996582,490.982635 183.369263,516.173523 
	C186.041153,528.701294 190.840775,540.671509 192.878098,553.349548 
	C193.982651,560.223022 192.239594,562.534851 185.465439,563.223572 
	C183.978714,563.374756 182.470596,563.343872 180.972229,563.347168 
	C173.620056,563.363647 172.333328,562.425964 170.708191,555.330200 
	C169.148849,548.521667 167.950974,541.625916 166.242157,534.857361 
	C164.158920,526.605835 164.000488,526.650330 155.385468,527.776489 
	C155.141510,527.808350 154.854233,527.508667 154.153839,527.128174 
	C158.543686,523.668823 166.272049,521.713501 160.005905,512.607422 
	C125.418297,533.233887 90.747902,553.909729 55.523685,574.915833 
	C58.771645,576.653748 61.269604,576.643066 63.729614,576.590759 
	C69.554153,576.466980 75.375229,576.127075 81.199738,576.065002 
	C101.016884,575.854126 120.839584,576.565247 140.641769,576.392395 
	C161.437729,576.210815 182.228500,574.867493 203.047043,574.892578 
	C216.538010,574.908875 230.029358,574.797852 243.520004,574.681519 
	C246.543381,574.655457 249.495300,574.502869 247.844147,569.908508 
	C240.000244,548.083008 236.888840,525.033142 230.386581,502.008301 
M304.408966,443.266205 
	C277.726715,437.068298 252.308228,427.938324 229.657516,411.114227 
	C240.884399,460.430145 251.100357,509.741180 267.148804,557.724304 
	C270.081757,556.570435 270.553192,555.041992 271.207825,553.748169 
	C282.182068,532.058044 293.310791,510.442871 303.988342,488.607208 
	C309.765350,476.793030 314.218414,464.400635 317.902893,451.744171 
	C319.025574,447.887787 318.464752,445.672577 314.046692,445.152771 
	C311.083679,444.804108 308.177795,443.970154 304.408966,443.266205 
M240.256805,101.683434 
	C233.627975,107.699303 226.055862,108.543030 217.908524,105.564644 
	C213.534775,103.965759 209.255417,102.103798 204.957809,100.302475 
	C195.172348,96.200928 186.809174,98.678375 179.280289,105.615448 
	C175.317978,109.266281 172.291702,113.640160 169.166153,117.951538 
	C167.259872,120.581009 165.028091,123.297592 161.671371,123.204231 
	C152.082748,122.937553 142.535721,124.070633 132.873260,122.722435 
	C123.948082,121.477112 115.764893,124.258385 109.838242,131.892792 
	C105.959900,136.888702 101.540886,141.471222 97.757835,146.533203 
	C92.582214,153.458511 87.295525,160.418076 85.350540,169.121414 
	C84.885109,171.204117 82.896393,173.827988 85.681641,175.433105 
	C88.064209,176.806152 90.477646,175.214340 92.725433,174.084717 
	C94.416016,173.235123 94.890945,171.649506 95.392570,170.057465 
	C96.660080,166.034653 99.004318,162.632889 101.259071,159.108719 
	C112.439667,141.633469 127.852921,133.125870 148.893356,135.597717 
	C153.269043,136.111771 157.538666,134.682007 161.145218,132.062622 
	C166.394440,128.250198 172.107330,125.073830 176.879074,120.602974 
	C186.064499,111.996735 196.556717,110.493156 207.074646,117.038239 
	C220.454620,125.364311 232.924377,125.518272 246.246948,116.969910 
	C253.254776,112.473381 261.028229,113.351128 267.578186,118.955803 
	C271.488220,122.301506 274.953064,126.161880 278.711182,129.691727 
	C288.672699,139.048172 299.691284,140.573944 311.639801,134.341782 
	C315.563965,132.295044 318.519043,129.091034 321.453735,125.919678 
	C326.118011,120.879288 331.480225,119.650650 337.699219,122.556007 
	C340.105408,123.680115 342.677460,124.686699 344.717224,126.317940 
	C355.848846,135.219986 377.391357,127.400337 378.914032,107.783859 
	C376.072174,107.938019 373.952118,109.680061 371.754578,110.964867 
	C361.921661,116.713676 352.441650,115.763756 342.958588,110.062149 
	C330.771851,102.735001 324.046631,103.631798 314.176056,113.607285 
	C303.115570,124.785324 291.655457,125.281586 279.795349,115.001747 
	C274.499634,110.411644 269.123810,105.875389 263.072205,102.375023 
	C256.005341,98.287384 248.520706,96.616302 240.256805,101.683434 
M257.284637,74.782120 
	C262.562561,71.628143 268.634766,69.381989 272.517731,64.482285 
	C279.501770,55.669472 288.232147,52.532696 299.296936,53.457020 
	C305.488586,53.974262 311.471893,51.519855 318.357819,48.588146 
	C312.751495,44.758251 307.401337,43.477215 302.221375,42.143059 
	C288.507782,38.610935 276.150330,39.968513 265.564453,51.068779 
	C252.563766,64.701180 236.422302,69.532272 217.709351,65.739479 
	C210.783569,64.335747 204.573059,60.903812 197.793884,59.403034 
	C181.570740,55.811535 167.139908,60.281296 154.334717,70.429153 
	C146.121292,76.938126 139.061569,84.789894 130.342804,90.764717 
	C126.306931,93.530426 124.904854,98.295647 123.196098,102.698174 
	C129.955490,102.698174 135.906204,102.720726 141.856689,102.691902 
	C147.956375,102.662361 153.181091,100.532631 157.680817,96.353577 
	C162.740433,91.654518 166.363022,85.833504 170.556152,80.456558 
	C177.514130,71.534187 185.474487,68.938454 196.104614,72.234009 
	C202.306534,74.156715 208.517075,76.066605 214.648712,78.198059 
	C229.110916,83.225372 243.093002,82.341980 257.284637,74.782120 
M178.984558,184.291794 
	C172.739273,184.857697 166.785126,183.297058 160.770279,181.957916 
	C152.167618,180.042618 144.578491,181.402420 139.167389,189.261902 
	C137.474564,191.720688 135.360977,193.885468 133.565231,196.278793 
	C131.199692,199.431534 128.256958,201.784546 124.561127,203.131989 
	C114.502380,206.799225 104.727097,208.518311 95.366653,200.864502 
	C91.395485,197.617355 88.964600,198.781052 87.132301,203.602692 
	C86.063850,206.414307 85.482513,209.325745 84.985481,212.292770 
	C83.315674,222.260620 84.689919,224.458496 94.219238,227.807648 
	C98.335739,229.254410 100.669388,228.775497 100.768585,223.892822 
	C100.862152,219.287170 103.117599,217.166122 107.773163,215.808090 
	C121.206039,211.889755 133.725540,205.660980 145.275635,197.800079 
	C150.354019,194.343750 155.298874,193.042145 161.205963,194.189819 
	C165.184402,194.962784 168.709305,196.885330 172.509262,198.083450 
	C182.287750,201.166580 191.111954,199.072922 195.515396,192.483826 
	C199.705582,186.213852 200.781906,178.908478 202.096405,171.714798 
	C202.512405,169.438339 201.106644,167.892426 199.214081,166.941406 
	C197.154602,165.906509 195.604095,167.161514 194.505768,168.659897 
	C192.739227,171.069839 191.153854,173.622299 189.620789,176.191437 
	C187.315750,180.054260 184.315308,182.998520 178.984558,184.291794 
M219.329208,143.457260 
	C214.609467,142.811020 210.414932,140.698914 206.344635,138.455978 
	C198.863586,134.333557 192.239883,135.889481 186.062683,141.054077 
	C184.022552,142.759766 182.003693,144.555908 180.293396,146.579697 
	C173.277679,154.881393 164.477493,156.560501 154.146759,154.760864 
	C133.426590,151.151337 115.481537,163.380066 110.901733,183.749451 
	C115.683762,185.879562 120.951012,184.801865 124.301056,179.758804 
	C132.682999,167.140839 144.520065,162.966751 158.868744,164.881058 
	C167.384949,166.017242 173.504669,163.227814 178.685349,156.385147 
	C185.090912,147.924622 195.235855,146.669327 204.026337,152.566177 
	C209.871857,156.487518 216.363205,158.414825 223.257217,158.863983 
	C235.273300,159.646851 246.520615,151.161545 249.764557,139.113480 
	C247.870850,137.311172 246.061707,138.209198 244.436981,139.470703 
	C237.067505,145.192703 228.747849,145.198395 219.329208,143.457260 
M349.160461,71.334923 
	C334.144012,64.659637 320.161255,65.040718 307.564667,76.945641 
	C301.455444,82.719398 293.991089,85.091393 285.523224,84.469666 
	C283.027802,84.286453 280.271362,83.493233 277.924408,85.301491 
	C281.854614,95.296227 292.804810,100.552437 302.334076,97.106903 
	C306.909210,95.452637 310.982727,92.995789 314.743835,89.810745 
	C321.066406,84.456528 328.333649,82.611221 336.647095,84.411346 
	C342.186493,85.610802 346.727661,88.696648 351.656952,91.060310 
	C359.474121,94.808769 369.247437,92.984100 375.052460,86.682259 
	C377.406494,84.126785 377.476959,81.034813 376.451111,78.250648 
	C375.254730,75.003517 372.309052,77.082756 370.338867,77.458015 
	C366.081085,78.268990 362.069519,78.217682 358.197968,76.166298 
	C355.401245,74.684418 352.627289,73.159508 349.160461,71.334923 
M145.254440,233.351822 
	C149.533264,231.819641 153.600800,234.414368 157.898544,234.376434 
	C156.548950,227.600220 154.158997,224.357422 150.086456,223.498489 
	C136.517715,220.636734 124.166191,230.333786 123.220528,244.077194 
	C121.909225,263.134521 130.450195,278.206970 142.050323,292.041443 
	C148.135651,299.298889 155.603424,304.946808 164.898987,307.482544 
	C174.563797,310.119049 177.547791,307.249725 176.067657,297.307465 
	C175.945084,296.484070 175.788177,295.652954 175.791595,294.825989 
	C175.803314,291.982300 174.330078,291.068054 171.649643,291.270660 
	C168.314835,291.522736 164.882141,291.630096 161.859680,289.985260 
	C148.832199,282.895721 138.234558,273.200684 134.428162,258.514404 
	C131.540039,247.371170 133.877319,236.474899 145.254440,233.351822 
M425.179626,127.762154 
	C414.098297,126.023598 406.204071,119.126266 398.347443,110.286545 
	C398.347443,112.879829 398.212982,114.336624 398.368256,115.761856 
	C399.918823,129.995087 413.666260,142.483887 427.946136,142.598160 
	C431.098633,142.623398 434.266815,142.121582 437.404327,142.292572 
	C444.040894,142.654312 446.603149,145.786163 445.921539,152.392365 
	C445.542480,156.066635 444.235931,159.464035 442.771210,162.850555 
	C439.889587,169.512939 440.997620,176.351471 441.545227,183.453110 
	C447.423676,182.540512 450.873657,179.407578 452.854187,175.067520 
	C459.489960,160.526123 459.976837,145.914856 452.541473,131.392441 
	C450.794464,127.980286 448.246521,126.879936 444.431183,127.051270 
	C438.300781,127.326546 432.234100,129.022339 425.179626,127.762154 
M439.133728,104.855804 
	C445.544983,102.492805 446.067566,101.306198 445.730682,95.048111 
	C445.424438,89.359810 441.219574,90.010773 437.844788,89.836266 
	C430.743103,89.469040 424.005798,88.640640 418.410400,83.508308 
	C414.041260,79.500778 410.957001,74.605171 407.649200,69.813942 
	C404.159515,64.759254 399.895538,63.784164 393.718323,66.497177 
	C396.863525,73.999084 399.426758,81.835075 404.206848,88.491722 
	C411.721527,98.956505 425.328186,109.402000 439.133728,104.855804 
M217.409882,193.921936 
	C213.418900,196.487411 213.632431,201.110291 212.189957,204.871597 
	C207.711761,216.548538 201.311737,220.494171 188.852081,219.553741 
	C183.984909,219.186371 179.201981,217.605957 173.949799,218.169693 
	C175.811829,223.904419 178.630814,228.361374 184.207077,230.576874 
	C194.569672,234.694077 204.622955,234.497238 213.107346,226.720917 
	C221.887482,218.673538 224.078140,208.099701 222.241089,196.600189 
	C221.896194,194.441177 220.726135,192.844620 217.409882,193.921936 
M129.910217,312.620850 
	C118.980644,319.803925 114.096504,331.126953 116.790428,342.470245 
	C119.533028,354.018463 129.356430,364.033325 138.664322,364.931122 
	C138.089386,358.913971 140.254547,352.637360 132.951645,348.510284 
	C128.454330,345.968689 127.648888,340.724823 128.160950,335.648102 
	C128.694351,330.359863 131.274490,325.927826 134.016693,321.520538 
	C137.625336,315.720642 137.264206,314.951141 129.910217,312.620850 
M113.548256,287.905762 
	C107.808067,277.512421 102.790161,266.869904 101.920082,254.761398 
	C101.839127,253.634827 101.873138,252.067947 100.642799,251.695297 
	C95.279297,250.070801 90.757599,246.704788 85.333817,243.774902 
	C85.333817,245.631851 85.262329,246.616852 85.353767,247.586472 
	C85.446617,248.571014 85.615784,249.565384 85.896080,250.512695 
	C90.155830,264.909515 97.544594,277.637604 106.760590,289.370056 
	C107.562561,290.391022 108.659920,291.245789 109.767685,291.943359 
	C111.040009,292.744568 112.587097,293.401855 113.935005,292.259369 
	C115.256516,291.139252 114.183365,289.814178 113.548256,287.905762 
M237.985916,174.712280 
	C253.156876,177.805176 265.106842,170.855087 269.848816,156.244064 
	C270.341919,154.724762 270.864288,153.388275 269.127258,152.347977 
	C267.686707,151.485229 266.605957,152.117508 265.586761,153.122452 
	C264.639282,154.056686 263.627319,154.932190 262.740906,155.920639 
	C255.018417,164.531723 246.450668,171.654465 234.181671,172.388367 
	C234.003128,172.399048 233.850571,172.844452 233.527603,173.320038 
	C234.810760,173.766022 236.025146,174.188110 237.985916,174.712280 
M219.950928,46.785820 
	C232.832092,50.015320 247.456741,44.965477 252.144272,34.903015 
	C239.243546,36.473782 227.284973,39.087101 215.715012,44.764416 
	C216.981415,46.178471 218.022430,46.565762 219.950928,46.785820 
z"/>
<path fill="#000000" opacity="1.000000" stroke="none" 
	d="
M299.163452,253.947815 
	C297.815216,252.922867 296.416626,252.313766 295.774445,251.248642 
	C289.472656,240.796799 278.888672,240.382996 268.503052,239.297195 
	C265.048645,238.936066 261.651398,238.032379 258.226318,237.385666 
	C254.489029,236.680008 252.409637,234.367950 251.817535,230.686081 
	C251.220367,226.972733 252.594147,224.130234 255.897354,222.351013 
	C268.241821,215.701859 281.187103,210.433151 294.729401,206.909088 
	C303.382324,204.657379 312.173126,202.630829 321.176971,202.165909 
	C338.187805,201.287506 354.765045,202.877151 369.942780,211.518951 
	C375.921661,214.923172 380.594696,219.467209 381.939423,226.628082 
	C382.320099,228.655502 382.068787,230.067688 379.851593,230.976379 
	C369.252991,235.320084 360.312561,242.059448 351.757996,249.638275 
	C334.444733,264.976685 319.342926,266.042542 299.163452,253.947815 
M335.624634,232.159348 
	C336.011505,229.312897 334.784576,227.693344 331.928192,227.364288 
	C328.958038,227.022110 325.982666,226.442902 323.011078,226.452179 
	C316.052460,226.473877 309.396851,227.739563 303.400513,231.947708 
	C307.277313,236.147873 313.756226,240.178436 318.052216,241.279800 
	C326.109009,243.345337 332.204651,240.410294 335.624634,232.159348 
z"/>
</svg>